# xmcd CD database file
#
# Track frame offsets:
#	150
#	15342
#	28882
#	47140
#	61387
#	71447
#	83470
#	92237
#
# Disc length: 1374 seconds
#
# Revision: 2
# Processed by: cddbd v1.5.2PL0 Copyright (c) Steve Scherf et al.
# Submitted via: CDex 1.70beta2
#
DISCID=5c055c08
DTITLE=The OioPlayers - Gold
DYEAR=1900
DGENRE=Rhythmic Soul
TTITLE0=A Thing Called Love
TTITLE1=A Little Soul Party
TTITLE2=The Man I Am
TTITLE3=My Neighbours
TTITLE4=Find Someone To Love
TTITLE5=You Dont Mean It
TTITLE6=Trepassin
TTITLE7=I Got To Hold On
EXTD=
EXTT0=
EXTT1=
EXTT2=
EXTT3=
EXTT4=
EXTT5=
EXTT6=
EXTT7=
PLAYORDER=
